<?xml version="1.0" encoding="UTF-8" standalone="no"?><!-- Generator: Gravit.io --><svg xmlns="http://www.w3.org/2000/svg" xmlns:xlink="http://www.w3.org/1999/xlink" style="isolation:isolate" viewBox="0 0 64 64" width="64pt" height="64pt"><defs><clipPath id="_clipPath_l61y6B13Wmj7VoJ2mZzTDTGYPruhNq4e"><rect width="64" height="64"/></clipPath></defs><g clip-path="url(#_clipPath_l61y6B13Wmj7VoJ2mZzTDTGYPruhNq4e)"><path d=" M 22.152 26.678 C 22.725 23.856 23.472 21.63 24.318 19.912 C 25.394 18.761 26.663 17.978 28.047 17.476 C 28.857 17.34 30.019 17.369 31.456 17.476 C 33.393 19.455 34.434 21.799 34.504 24.423 C 34.348 27.325 35.375 30.119 37.512 33.354 C 37.993 37.879 37.685 42.584 36.429 46.66 L 33.863 50.854 L 31.376 51.576 C 30.465 51.834 29.622 51.983 28.769 51.937 C 28.143 51.943 26.872 51.4 25.12 50.403 C 24.308 49.288 23.291 47.061 21.992 43.638 C 21.291 40.062 21.37 34.437 22.152 26.678 L 22.152 26.678 L 22.152 26.678 L 22.152 26.678 L 22.152 26.678 L 22.152 26.678 L 22.152 26.678 L 22.152 26.678 L 22.152 26.678 L 22.152 26.678 L 22.152 26.678 Z  M 20.177 11.286 C 23.508 11.217 24.887 11.5 24.097 11.962 C 22.576 11.981 19.054 11.624 20.177 11.286 L 20.177 11.286 L 20.177 11.286 L 20.177 11.286 L 20.177 11.286 L 20.177 11.286 L 20.177 11.286 L 20.177 11.286 L 20.177 11.286 Z  M 24.037 10.079 L 24.468 11.015 L 22.132 10.891 C 21.669 10.717 22.977 10.071 24.037 10.079 L 24.037 10.079 L 24.037 10.079 L 24.037 10.079 L 24.037 10.079 L 24.037 10.079 L 24.037 10.079 Z  M 26.328 10.265 C 26.328 9.988 26.53 9.763 26.779 9.763 C 27.028 9.763 27.23 9.988 27.23 10.265 C 27.23 10.542 27.028 10.767 26.779 10.767 C 26.53 10.767 26.328 10.542 26.328 10.265 L 26.328 10.265 L 26.328 10.265 L 26.328 10.265 L 26.328 10.265 Z  M 17.1 31.983 C 17.889 29.73 19.462 27.263 21.671 24.513 L 21.029 33.083 C 19.169 35.356 17.31 37.007 17.31 37.007 C 17.044 37.169 16.721 37.23 16.588 37.142 C 16.588 37.142 16.432 33.887 17.1 31.983 L 17.1 31.983 L 17.1 31.983 Z  M 20.688 12.21 Q 19.325 11.985 17.6 11.85 C 17.257 11.105 17.477 10.548 18.142 10.271 L 23.215 9.053 C 23.916 8.958 24.583 8.777 25.14 8.423 C 25.4 8.118 26.243 7.565 27.165 7.249 C 31.657 6.888 32.379 6.234 34.965 11.038 C 36.173 13.133 36.249 15.255 36.55 19.36 C 40.259 25.02 42.304 24.457 43.127 31.696 C 43.208 35.911 42.826 38.827 41.823 37.966 C 41.118 36.893 40.094 35.772 38.876 34.47 C 38.755 34.22 38.711 34.539 38.575 35.327 C 38.285 37.005 38.916 41.461 37.231 46.987 L 34.885 50.978 C 34.401 51.296 35.528 53.002 36.971 54.609 L 36.264 55.128 L 35.527 55.151 L 33.802 57 L 32.319 55.241 L 31.356 55.782 L 30.915 55.466 L 32.038 52.625 L 28.629 52.76 L 28.308 53.572 L 28.794 56.493 C 28.634 57.089 28.098 56.805 27.321 55.737 C 27.077 55.756 26.617 56.071 25.862 56.594 L 24.498 55.827 L 23.215 55.963 L 22.694 55.647 L 25.696 51.993 L 25.556 51.497 L 24.177 50.144 C 23.199 48.528 22.316 46.467 21.45 43.874 C 20.609 41.623 20.521 38.42 21.109 34.177 C 19.075 36.851 17.511 38.161 16.341 38.021 C 15.994 37.341 15.776 35.101 16.377 32.666 C 17.925 27.982 20.067 25.111 23.054 21.074 L 25.461 16.698 C 26.053 13.5 24.25 12.8 20.688 12.21 L 20.688 12.21 L 20.688 12.21 L 20.688 12.21 L 20.688 12.21 L 20.688 12.21 L 20.688 12.21 L 20.688 12.21 L 20.688 12.21 L 20.688 12.21 L 20.688 12.21 Z  M 35.587 23.16 C 35.708 22.544 36.013 22.556 36.269 22.934 L 38.815 26.723 C 39.166 26.88 39.479 27.134 39.678 27.4 C 41.169 30.794 41.756 33.71 41.362 36.06 C 36.484 31.178 34.584 26.907 35.587 23.16 Z  M 56 54.237" fill-rule="evenodd" fill="rgb(0,0,0)"/></g></svg>